<?xml version="1.0" encoding="UTF-8" standalone="no"?>
<svg
   xmlns:dc="http://purl.org/dc/elements/1.1/"
   xmlns:cc="http://creativecommons.org/ns#"
   xmlns:rdf="http://www.w3.org/1999/02/22-rdf-syntax-ns#"
   xmlns:svg="http://www.w3.org/2000/svg"
   xmlns="http://www.w3.org/2000/svg"
   xmlns:sodipodi="http://sodipodi.sourceforge.net/DTD/sodipodi-0.dtd"
   xmlns:inkscape="http://www.inkscape.org/namespaces/inkscape"
   width="24"
   height="24"
   fill-rule="evenodd"
   clip-rule="evenodd"
   version="1.1"
   id="svg4"
   sodipodi:docname="orange-gear.svg"
   inkscape:version="0.92.4 (5da689c313, 2019-01-14)">
  <metadata
     id="metadata10">
    <rdf:RDF>
      <cc:Work
         rdf:about="">
        <dc:format>image/svg+xml</dc:format>
        <dc:type
           rdf:resource="http://purl.org/dc/dcmitype/StillImage" />
        <dc:title />
      </cc:Work>
    </rdf:RDF>
  </metadata>
  <defs
     id="defs8" />
  <sodipodi:namedview
     pagecolor="#ffffff"
     bordercolor="#666666"
     borderopacity="1"
     objecttolerance="10"
     gridtolerance="10"
     guidetolerance="10"
     inkscape:pageopacity="0"
     inkscape:pageshadow="2"
     inkscape:window-width="1920"
     inkscape:window-height="986"
     id="namedview6"
     showgrid="false"
     inkscape:zoom="13.906433"
     inkscape:cx="0.24668538"
     inkscape:cy="7.5498059"
     inkscape:window-x="2869"
     inkscape:window-y="-11"
     inkscape:window-maximized="1"
     inkscape:current-layer="svg4" />
  <path
     inkscape:connector-curvature="0"
     d="m 13.078997,8.8022047 c -1.752437,-0.554261 -3.6289686,0.421271 -4.1832306,2.1737093 -0.55426,1.752438 0.420319,3.628669 2.1727556,4.18293 1.752439,0.554261 3.628669,-0.420318 4.182931,-2.172757 C 15.805714,11.23365 14.831436,9.3564647 13.078997,8.8022047 M 10.766965,16.112294 C 8.4882254,15.391572 7.2215984,12.9531 7.9423174,10.674357 8.6630384,8.3956157 11.101813,7.1280367 13.380556,7.8487547 c 2.27874,0.72072 3.545065,3.1601483 2.824346,5.4388913 -0.720721,2.27874 -3.159194,3.545367 -5.437937,2.824648 m -3.1479386,5.996882 2.274928,0.719514 c 0.6942746,-0.938317 1.3760176,-2.135463 2.9286616,-2.272638 1.612419,-0.13715 2.482788,0.990824 3.263139,1.736874 l 2.116541,-1.100997 c -0.168622,-1.151451 -0.543944,-2.478403 0.460126,-3.673245 0.953435,-1.134289 2.159535,-1.061177 3.539075,-1.082143 l 0.720117,-2.276835 C 21.871061,13.385881 20.779145,12.739518 20.649123,11.240529 20.519898,9.7522797 21.425697,8.9742087 22.385549,7.9688567 l -1.100042,-2.116239 c -1.229954,0.184697 -2.496667,0.528728 -3.673894,-0.461415 -1.137849,-0.958756 -1.056011,-2.152656 -1.083398,-3.538426 l -2.274929,-0.719512 c -0.775477,1.045834 -1.415469,2.140815 -2.919828,2.271237 -0.394148,0.03581 -0.752728,-10e-4 -1.095016,-0.109297 C 9.4346864,3.0409907 8.8892954,2.4573557 8.0611844,1.6699817 l -2.116892,1.098787 c 0.192951,1.293396 0.518183,2.51011 -0.460664,3.67516 -0.959059,1.138802 -2.152054,1.054105 -3.537823,1.081492 l -0.720116,2.276834 c 1.042877,0.7682513 2.140513,1.4164233 2.272492,2.9191783 0.130871,1.512892 -0.804894,2.29617 -1.736427,3.271671 l 1.099742,2.117192 c 1.601129,-0.253993 2.608445,-0.437786 3.674197,0.460445 1.141361,0.960916 1.053851,2.156168 1.083399,3.538426 M 10.267505,23.99563 6.6415404,22.848811 c -0.07091,-2.034073 0.06967,-2.823426 -0.748703,-3.512279 -0.831864,-0.702558 -1.690225,-0.396139 -3.591735,-0.137511 L 0.54816635,15.824316 C 1.9344864,14.33609 2.5948664,13.886292 2.5016954,12.808 2.4077154,11.738891 1.6929764,11.412147 0.05873435,10.175775 L 1.2058554,6.5488587 c 2.021728,-0.07167 2.821568,0.07222 3.512279,-0.748703 0.690708,-0.820929 0.41871,-1.559324 0.136558,-3.592037 l 3.374405,-1.75198401 c 1.410265,1.31446601 1.9395806,2.04509401 3.0163156,1.95353001 1.070062,-0.09368 1.388976,-0.803553 2.634432,-2.44331101 l 3.625012,1.14651701 c 0.07187,2.034375 -0.06711,2.825287 0.749656,3.512581 0.828954,0.698492 1.665329,0.401897 3.592688,0.137812 l 1.751332,3.373151 c -1.394104,1.496254 -2.044598,1.9512763 -1.952577,3.0166183 0.09272,1.069761 0.80872,1.395853 2.44266,2.633179 l -1.147422,3.627871 c -2.021427,0.07072 -2.822523,-0.07253 -3.513232,0.7484 -0.678258,0.808087 -0.428778,1.501601 -0.135002,3.59043 l -3.373755,1.75324 c -1.400282,-1.302917 -1.939024,-2.050163 -3.007131,-1.952722 -1.065645,0.09298 -1.375307,0.766972 -2.644569,2.442201"
     id="path2-5"
     style="fill:#000000;fill-opacity:1" />
</svg>
