<?xml version="1.0"?>
<svg xmlns="http://www.w3.org/2000/svg" xmlns:xlink="http://www.w3.org/1999/xlink" version="1.1" viewBox="0 0 192 192" width="50px" height="50px"><g fill="none" fill-rule="nonzero" stroke="none" stroke-width="1" stroke-linecap="butt" stroke-linejoin="miter" stroke-miterlimit="10" stroke-dasharray="" stroke-dashoffset="0" font-family="none" font-weight="none" font-size="none" text-anchor="none" style="mix-blend-mode: normal"><path d="M0,192v-192h192v192z" fill="none"/><g id="original-icon" fill="#000000"><path d="M96,11.52c-46.656,0 -84.48,37.824 -84.48,84.48c0,42.3552 31.2,77.32608 71.85408,83.43552v-61.04448h-20.90112v-22.20672h20.90112v-14.77632c0,-24.46464 11.91936,-35.20512 32.25216,-35.20512c9.73824,0 14.88768,0.72192 17.32608,1.05216v19.38432h-13.87008c-8.63232,0 -11.64672,8.18304 -11.64672,17.40672v12.13824h25.29792l-3.43296,22.20672h-21.86496v61.22496c41.23392,-5.59488 73.04448,-40.84992 73.04448,-83.616c0,-46.656 -37.824,-84.48 -84.48,-84.48z"/></g></g></svg>
