<?xml version="1.0" encoding="UTF-8" standalone="no"?>
<svg
   xmlns:dc="http://purl.org/dc/elements/1.1/"
   xmlns:cc="http://creativecommons.org/ns#"
   xmlns:rdf="http://www.w3.org/1999/02/22-rdf-syntax-ns#"
   xmlns:svg="http://www.w3.org/2000/svg"
   xmlns="http://www.w3.org/2000/svg"
   xmlns:sodipodi="http://sodipodi.sourceforge.net/DTD/sodipodi-0.dtd"
   xmlns:inkscape="http://www.inkscape.org/namespaces/inkscape"
   width="24"
   height="24"
   fill-rule="evenodd"
   clip-rule="evenodd"
   version="1.1"
   id="svg4"
   sodipodi:docname="yelow-gear.svg"
   inkscape:version="0.92.4 (5da689c313, 2019-01-14)">
  <metadata
     id="metadata10">
    <rdf:RDF>
      <cc:Work
         rdf:about="">
        <dc:format>image/svg+xml</dc:format>
        <dc:type
           rdf:resource="http://purl.org/dc/dcmitype/StillImage" />
        <dc:title />
      </cc:Work>
    </rdf:RDF>
  </metadata>
  <defs
     id="defs8" />
  <sodipodi:namedview
     pagecolor="#ffffff"
     bordercolor="#666666"
     borderopacity="1"
     objecttolerance="10"
     gridtolerance="10"
     guidetolerance="10"
     inkscape:pageopacity="0"
     inkscape:pageshadow="2"
     inkscape:window-width="1920"
     inkscape:window-height="986"
     id="namedview6"
     showgrid="false"
     inkscape:zoom="9.8333331"
     inkscape:cx="-24.552962"
     inkscape:cy="3.8952928"
     inkscape:window-x="2869"
     inkscape:window-y="-11"
     inkscape:window-maximized="1"
     inkscape:current-layer="svg4" />
  <path
     inkscape:connector-curvature="0"
     d="M 14.957489,10.36443 C 14.028459,8.7785095 11.981974,8.2447115 10.396053,9.1737415 8.8101335,10.102773 8.2758285,12.148394 9.2048605,13.734315 c 0.9290285,1.585922 2.9746515,2.120225 4.5605725,1.191195 1.585921,-0.929032 2.121087,-2.975159 1.192056,-4.56108 m -6.6154805,3.875343 c -1.208044,-2.062215 -0.513627,-4.7208385 1.548587,-5.9288825 2.0622155,-1.208043 4.7217025,-0.514133 5.9297465,1.548083 1.208042,2.0622135 0.512764,4.7213435 -1.549451,5.9293875 -2.062216,1.208043 -4.7208385,0.513627 -5.9288825,-1.548588 m -6.355641,2.340503 1.20602,2.058764 c 1.144158,-0.231004 2.452495,-0.662491 3.696697,0.276383 1.288543,0.978957 1.17843,2.399432 1.257501,3.476133 l 2.3086945,0.601555 c 0.646633,-0.967543 1.257502,-2.203872 2.803491,-2.417619 1.467839,-0.202734 2.313913,0.659922 3.35176,1.569015 l 2.06049,-1.207032 c -0.26098,-1.278419 -0.638088,-2.48997 0.270132,-3.689558 0.901615,-1.191082 2.095341,-1.161388 3.481519,-1.264135 l 0.602062,-2.307831 C 21.988157,12.988631 20.817508,12.394918 20.607473,10.871092 20.405661,9.3969175 21.266619,8.5657465 22.17512,7.5189745 l -1.206022,-2.058763 c -1.276484,0.256369 -2.485359,0.640022 -3.689201,-0.271502 -0.316507,-0.237605 -0.557922,-0.505294 -0.739382,-0.815057 -0.4261,-0.727385 -0.43966,-1.526068 -0.526478,-2.665451 l -2.307474,-0.60343 c -0.723717,1.089191 -1.297871,2.210137 -2.805216,2.41863 -1.4750375,0.202316 -2.3036205,-0.660157 -3.3503905,-1.568658 l -2.060491,1.207032 c 0.25902,1.269138 0.639159,2.485865 -0.270133,3.689559 -0.916909,1.210473 -2.136363,1.164558 -3.481519,1.264134 l -0.602923,2.3083365 c 1.358481,0.884678 2.229225,1.423445 2.418123,2.804354 0.20297,1.478132 -0.663104,2.306505 -1.567646,3.352117 m 0.701033,3.175119 -1.92225404,-3.281423 C 2.0758785,14.916903 2.7092775,14.425328 2.5636545,13.365593 2.4172055,12.286641 1.5748115,11.938717 -0.00969554,10.856145 l 0.961032,-3.6793825 c 2.02632204,-0.175256 2.81789004,-0.06643 3.47148104,-0.929113 0.646838,-0.856403 0.335414,-1.577951 -0.04871,-3.590861 l 3.282288,-1.92276004 c 1.548415,1.30189404 2.045551,1.94478504 3.1083785,1.79850804 1.062831,-0.146276 1.355893,-0.876565 2.508943,-2.57421204 l 3.67852,0.961537 c 0.165561,1.92074304 0.06866,2.81774104 0.929113,3.47148104 0.856908,0.6477 1.569384,0.334639 3.592735,-0.04749 l 1.92175,3.280561 c -1.310228,1.557933 -1.943481,2.051736 -1.798004,3.1092425 0.147016,1.073984 0.966506,1.414464 2.573857,2.51031 l -0.96118,3.677152 c -2.037479,0.175996 -2.825212,0.07768 -3.470977,0.929975 -0.648206,0.856046 -0.335414,1.577953 0.04785,3.591369 l -3.28315,1.923266 c -1.547552,-1.302401 -2.046056,-1.945648 -3.108885,-1.799371 -1.044979,0.145092 -1.324671,0.826984 -2.506713,2.574062 L 7.2097575,23.18025 c -0.165898,-1.905485 -0.06486,-2.821133 -0.922845,-3.464729 -0.85316,-0.645259 -1.53472,-0.352625 -3.599515,0.03986"
     id="path2-9"
     style="fill:#000000;fill-opacity:1" />
</svg>
